<?xml version="1.0" encoding="UTF-8"?>
<!DOCTYPE svg PUBLIC "-//W3C//DTD SVG 1.1//EN" "http://www.w3.org/Graphics/SVG/1.1/DTD/svg11.dtd">
<svg version="1.1" xmlns="http://www.w3.org/2000/svg" xmlns:xlink="http://www.w3.org/1999/xlink" x="0" y="0" width="466" height="219" viewBox="0, 0, 466, 219">
  <g id="Layer_1">
    <path d="M269.2,213.5 L260.4,213.5 C260.6,215.7 262.2,217.2 264.5,217.2 C265.8,217.2 266.9,216.7 267.7,215.8 L268.5,216.7 C267.6,217.8 266.1,218.4 264.4,218.4 C261.1,218.4 258.9,216.2 258.9,213 C258.9,209.9 261.1,207.7 264,207.7 C267,207.7 269.1,209.9 269.1,213 C269.2,213.2 269.2,213.4 269.2,213.5 z M260.4,212.5 L267.9,212.5 C267.7,210.4 266.2,209 264.2,209 C262.1,209 260.6,210.4 260.4,212.5 z M284.1,204.4 L284.1,218.4 L282.6,218.4 L282.6,211.9 L273.8,211.9 L273.8,218.4 L272.3,218.4 L272.3,204.4 L273.8,204.4 L273.8,210.6 L282.6,210.6 L282.6,204.4 z M297.6,213.5 L288.8,213.5 C289,215.7 290.6,217.2 292.9,217.2 C294.2,217.2 295.3,216.7 296.1,215.8 L296.9,216.7 C296,217.8 294.5,218.4 292.8,218.4 C289.5,218.4 287.3,216.2 287.3,213 C287.3,209.9 289.5,207.7 292.4,207.7 C295.4,207.7 297.5,209.9 297.5,213 C297.6,213.2 297.6,213.4 297.6,213.5 z M288.8,212.5 L296.3,212.5 C296.1,210.4 294.6,209 292.6,209 C290.4,209 288.9,210.4 288.8,212.5 z M308.1,211.8 L308.1,218.3 L306.7,218.3 L306.7,216.7 C306.1,217.8 304.8,218.4 303.1,218.4 C300.7,218.4 299.3,217.2 299.3,215.3 C299.3,213.7 300.3,212.3 303.4,212.3 L306.7,212.3 L306.7,211.7 C306.7,209.9 305.7,208.9 303.7,208.9 C302.3,208.9 301.1,209.4 300.2,210.1 L299.6,209 C300.7,208.1 302.2,207.6 303.9,207.6 C306.6,207.8 308.1,209.1 308.1,211.8 z M306.7,215.2 L306.7,213.5 L303.4,213.5 C301.4,213.5 300.7,214.3 300.7,215.4 C300.7,216.6 301.7,217.4 303.4,217.4 C305,217.3 306.1,216.6 306.7,215.2 z M312,203.5 L313.4,203.5 L313.4,218.3 L312,218.3 z M322.9,217.7 C322.3,218.2 321.5,218.4 320.7,218.4 C318.7,218.4 317.6,217.3 317.6,215.3 L317.6,209 L315.7,209 L315.7,207.8 L317.6,207.8 L317.6,205.5 L319,205.5 L319,207.8 L322.2,207.8 L322.2,209 L319,209 L319,215.3 C319,216.5 319.6,217.2 320.8,217.2 C321.4,217.2 322,217 322.4,216.7 L322.9,217.7 z M335.2,212.3 L335.2,218.4 L333.8,218.4 L333.8,212.4 C333.8,210.2 332.6,209 330.6,209 C328.3,209 326.9,210.4 326.9,212.8 L326.9,218.3 L325.5,218.3 L325.5,203.5 L326.9,203.5 L326.9,209.7 C327.7,208.5 329.1,207.8 330.8,207.8 C333.4,207.8 335.2,209.2 335.2,212.3 z M354.2,218.4 L351,213.9 C350.6,213.9 350.3,214 349.9,214 L346.1,214 L346.1,218.4 L344.6,218.4 L344.6,204.4 L349.8,204.4 C353.4,204.4 355.5,206.2 355.5,209.2 C355.5,211.4 354.3,212.9 352.3,213.6 L355.7,218.4 L354.2,218.4 z M354.1,209.2 C354.1,207 352.6,205.7 349.8,205.7 L346.1,205.7 L346.1,212.7 L349.8,212.7 C352.6,212.7 354.1,211.4 354.1,209.2 z M367.9,213.5 L359.1,213.5 C359.3,215.7 360.9,217.2 363.2,217.2 C364.5,217.2 365.6,216.7 366.4,215.8 L367.2,216.7 C366.3,217.8 364.8,218.4 363.1,218.4 C359.8,218.4 357.6,216.2 357.6,213 C357.6,209.9 359.8,207.7 362.7,207.7 C365.7,207.7 367.8,209.9 367.8,213 C367.9,213.2 367.9,213.4 367.9,213.5 z M359.1,212.5 L366.6,212.5 C366.4,210.4 364.9,209 362.9,209 C360.8,209 359.3,210.4 359.1,212.5 z M379.5,207.8 L374.8,218.3 L373.3,218.3 L368.6,207.8 L370.1,207.8 L374,216.8 L378,207.8 z M380.1,213.1 C380.1,210 382.4,207.8 385.5,207.8 C388.6,207.8 390.8,210 390.8,213.1 C390.8,216.2 388.5,218.5 385.5,218.5 C382.5,218.5 380.1,216.2 380.1,213.1 z M389.4,213.1 C389.4,210.6 387.7,209 385.5,209 C383.3,209 381.6,210.6 381.6,213.1 C381.6,215.6 383.3,217.2 385.5,217.2 C387.7,217.2 389.4,215.6 389.4,213.1 z M393.7,203.5 L395.1,203.5 L395.1,218.3 L393.7,218.3 z M408.6,207.8 L408.6,218.3 L407.2,218.3 L407.2,216.4 C406.5,217.7 405.1,218.4 403.4,218.4 C400.7,218.4 399,216.9 399,213.9 L399,207.8 L400.4,207.8 L400.4,213.8 C400.4,216 401.6,217.2 403.6,217.2 C405.8,217.2 407.2,215.8 407.2,213.4 L407.2,207.9 L408.6,207.9 L408.6,207.8 z M418.1,217.7 C417.5,218.2 416.7,218.4 415.9,218.4 C413.9,218.4 412.8,217.3 412.8,215.3 L412.8,209 L410.9,209 L410.9,207.8 L412.8,207.8 L412.8,205.5 L414.2,205.5 L414.2,207.8 L417.4,207.8 L417.4,209 L414.2,209 L414.2,215.3 C414.2,216.5 414.8,217.2 416,217.2 C416.6,217.2 417.2,217 417.6,216.7 L418.1,217.7 z M420.4,204.5 C420.4,204 420.9,203.5 421.4,203.5 C421.9,203.5 422.4,203.9 422.4,204.5 C422.4,205.1 422,205.5 421.4,205.5 C420.8,205.5 420.4,205.1 420.4,204.5 z M420.7,207.8 L422.1,207.8 L422.1,218.3 L420.7,218.3 L420.7,207.8 z M425,213.1 C425,210 427.3,207.8 430.4,207.8 C433.5,207.8 435.7,210 435.7,213.1 C435.7,216.2 433.4,218.5 430.4,218.5 C427.4,218.5 425,216.2 425,213.1 z M434.3,213.1 C434.3,210.6 432.6,209 430.4,209 C428.2,209 426.5,210.6 426.5,213.1 C426.5,215.6 428.2,217.2 430.4,217.2 C432.6,217.2 434.3,215.6 434.3,213.1 z M448.3,212.3 L448.3,218.4 L446.9,218.4 L446.9,212.4 C446.9,210.2 445.7,209 443.7,209 C441.4,209 440,210.4 440,212.8 L440,218.3 L438.6,218.3 L438.6,207.8 L440,207.8 L440,209.7 C440.8,208.4 442.2,207.7 444,207.7 C446.5,207.8 448.3,209.2 448.3,212.3 z" fill="#000000"/>
    <path d="M254.9,184 L254.9,174 C251.5,177.6 247.4,180.5 242.3,182.6 C237.4,184.7 231.9,185.7 225.7,185.7 C219.8,185.7 214.6,184.7 209.7,182.8 C205,180.8 200.9,178.1 197.5,174.6 C194.1,171 191.5,166.9 189.7,161.9 C187.9,157 186.9,151.5 186.9,145.3 L186.9,83.8 L214.1,83.8 L214.1,140.5 C214.1,146.5 215.7,151.3 219,155 C222.3,158.8 226.8,160.5 232.7,160.5 C239.4,160.5 244.6,158.5 248.7,154.6 C252.8,150.7 254.7,145.3 254.7,138.1 L254.7,83.6 L281.6,83.6 L281.6,184 L254.9,184 z M299.6,184 L299.6,83.9 L326.7,83.9 L326.7,97.6 C330.1,93 334.2,89.4 339.1,86.7 C344,83.9 349.5,82.6 355.7,82.6 L355.7,110 C345.8,110 338.4,112.6 333.7,117.7 C329.1,122.9 326.9,129.8 326.9,138.6 L326.9,184.3 L299.7,184.3 L299.7,184 L299.6,184 z M462.3,163.7 C457.4,171 451.1,176.9 443.2,181.1 C435.3,185.3 425.9,187.5 414.8,187.5 C406.8,187.5 399.5,186.2 393.1,183.4 C386.7,180.8 381.2,177 376.5,172.5 C372,168 368.4,162.4 366,156.1 C363.6,149.7 362.2,142.9 362.2,135.4 C362.2,128.2 363.5,121.5 366.1,115.2 C368.7,108.8 372.3,103.3 377,98.6 C381.7,93.9 387.3,90.1 393.8,87.4 C400.3,84.6 407.5,83.3 415.3,83.3 C423.3,83.3 430.3,84.6 436.5,87.2 C442.7,89.8 448.1,93.4 452.3,98 C456.7,102.6 460,107.9 462.2,114.1 C464.4,120.3 465.6,127 465.6,134.3 C465.6,136.3 465.6,138.2 465.4,140.3 C465.2,142.4 465.2,143.6 465.2,143.9 L388.7,143.7 C390.2,150.1 393.1,155.1 397.8,158.9 C402.4,162.7 408.2,164.6 415.2,164.6 C421.4,164.6 426.6,163.5 430.9,161 C435.3,158.6 438.9,155.5 441.8,151.4 L462.3,163.7 z M415,105.4 C408.6,105.4 403.3,107 399,110.1 C394.8,113.4 391.7,117.8 389.9,123.5 L438.5,123.5 C437,117.5 434.1,112.9 429.7,109.8 C425.5,106.8 420.6,105.4 415,105.4 z M0.2,87.1 L27.3,87.1 L27.3,187.2 L0.2,187.2 z" fill="#000000"/>
    <g>
      <path d="M140.683,105.535 C140.683,112.218 135.355,117.635 128.783,117.635 C122.211,117.635 116.883,112.218 116.883,105.535 C116.883,98.852 122.211,93.435 128.783,93.435 C135.355,93.435 140.683,98.852 140.683,105.535 z" fill="#1FA8AA"/>
      <g>
        <path d="M110.983,105.535 C110.983,112.218 105.655,117.635 99.083,117.635 C92.511,117.635 87.183,112.218 87.183,105.535 C87.183,98.852 92.511,93.435 99.083,93.435 C105.655,93.435 110.983,98.852 110.983,105.535 z" fill="#1FA8AA"/>
        <path d="M105.483,98.835 C105.483,100.547 104.095,101.935 102.383,101.935 C100.671,101.935 99.283,100.547 99.283,98.835 C99.283,97.123 100.671,95.735 102.383,95.735 C104.095,95.735 105.483,97.123 105.483,98.835 z" fill="#FFFFFF"/>
      </g>
    </g>
    <path d="M136.4,98.8 C136.4,100.512 135.012,101.9 133.3,101.9 C131.588,101.9 130.2,100.512 130.2,98.8 C130.2,97.088 131.588,95.7 133.3,95.7 C135.012,95.7 136.4,97.088 136.4,98.8 z" fill="#FFFFFF"/>
    <path d="M134.8,152.8 C128.6,156.7 121.4,158.7 113.3,158.7 C107.4,158.7 102.1,157.6 97,155.4 C91.9,153.2 87.5,150.3 84,146.6 C80.4,142.8 77.6,138.6 75.5,133.4 C73.4,128.2 72.4,122.8 72.4,116.9 C72.4,111.2 73.5,105.8 75.5,100.8 C77.5,95.7 80.2,91.5 83.8,87.8 C87.4,84 91.5,81.1 96.4,79 C101.3,76.9 106.5,75.7 112.2,75.7 C120.8,75.7 128,77.7 134,81.7 C139.9,85.8 150.3,97.2 154.2,103.7 L178.3,86.9 C170.5,68.5 157.8,60.5 148,55.6 C139.5,51.4 130,48.6 119.5,47.7 L119.5,34.9 C126.3,32.4 131.1,25.9 131.1,18.3 C131.1,8.5 123.1,0.5 113.3,0.5 C103.5,0.5 95.5,8.5 95.5,18.3 C95.5,25.9 100.3,32.4 107.1,34.9 L107.1,47.7 C99.1,48.3 91.6,50 84.6,52.9 C76,56.5 68.5,61.4 62.1,67.6 C55.7,74 50.7,81.3 47.1,89.6 C43.3,97.9 41.6,107 41.6,116.8 C41.6,126.6 43.6,135.7 47.1,144.2 C50.9,152.7 55.9,160 62.3,166.4 C68.7,172.8 76.3,177.6 85.1,181.2 C93.9,184.8 103.4,186.6 113.6,186.6 C127.3,186.6 139,183.7 148.8,177.8 C158.6,171.9 166.7,163.8 173.3,153.2 L149.8,137 C145.9,143.7 141,148.9 134.8,152.8 z" fill="#1FA8AA"/>
  </g>
</svg>
