<svg id="Logo" xmlns="http://www.w3.org/2000/svg" width="160" height="88.896" viewBox="0 0 160 88.896">
  <g id="name" transform="translate(0 63.625)">
    <path id="Tracé_2" data-name="Tracé 2" d="M230.273,281.32a3.028,3.028,0,1,1-3.251,3.019,3.179,3.179,0,0,1,3.251-3.019" transform="translate(-192.54 -262.088)" fill="#1226aa"/>
    <path id="Tracé_3" data-name="Tracé 3" d="M259.075,278.047H247.114l-1.685,4.286h-6.262l10.356-24.861h7.145l10.315,24.861h-6.222Zm-10.436-4.585h8.871l-4.416-11.406Z" transform="translate(-194.891 -257.472)" fill="#1226aa"/>
    <path id="Tracé_4" data-name="Tracé 4" d="M276.746,257.472h5.7v20.2h11.32v4.659H276.746Z" transform="translate(-202.165 -257.472)" fill="#1226aa"/>
    <path id="Tracé_5" data-name="Tracé 5" d="M303.588,262.131H295.76v-4.659h21.355v4.659h-7.787v20.2h-5.74Z" transform="translate(-205.845 -257.472)" fill="#1226aa"/>
    <path id="Tracé_6" data-name="Tracé 6" d="M326.769,257.472h18.946v4.548H332.468v5.4h12.966v4.547H332.468v5.778h13.247v4.584H326.769Z" transform="translate(-211.847 -257.472)" fill="#1226aa"/>
    <path id="Tracé_7" data-name="Tracé 7" d="M365.662,273.426h-4.174v8.907h-5.7V257.472h12.523c5.58,0,8.991,3.392,8.991,8.014a7.251,7.251,0,0,1-5.86,7.38l6.021,9.467H370.92Zm1.806-11.406h-5.981v6.859h5.981c2.288,0,4.014-1.342,4.014-3.43s-1.727-3.429-4.014-3.429" transform="translate(-217.464 -257.472)" fill="#1226aa"/>
    <path id="Tracé_1" data-name="Tracé 1" d="M202.649,265.262l-4.656,17.071h-6.061l-7.667-24.861h6.382l4.7,17.965,5.1-17.965H204.9l5.058,17.965,4.656-17.965h6.423l-7.627,24.861h-6.061Z" transform="translate(-184.264 -257.472)" fill="#1226aa"/>
  </g>
  <g id="logo-2" data-name="logo" transform="translate(0 0)">
    <rect id="Rectangle_1" data-name="Rectangle 1" width="18.133" height="35.065" transform="translate(84.207 12.823) rotate(-45.002)" fill="#1226aa"/>
    <rect id="Rectangle_2" data-name="Rectangle 2" width="35.065" height="18.133" transform="translate(72.041 24.794) rotate(-44.998)" fill="#1226aa"/>
    <rect id="Rectangle_3" data-name="Rectangle 3" width="18.133" height="35.065" transform="translate(24.146 12.823) rotate(-45.002)" fill="#1226aa"/>
    <rect id="Rectangle_4" data-name="Rectangle 4" width="35.064" height="18.133" transform="translate(36.313 24.794) rotate(-45)" fill="#1226aa"/>
    <rect id="Rectangle_5" data-name="Rectangle 5" width="18.133" height="35.065" transform="translate(0 12.823) rotate(-45.002)" fill="#1226aa"/>
    <rect id="Rectangle_6" data-name="Rectangle 6" width="35.064" height="18.133" transform="translate(12.166 24.794) rotate(-44.998)" fill="#1226aa"/>
  </g>
</svg>
